<?xml version="1.0" encoding="utf-8"?>
<!-- Generator: Adobe Illustrator 23.0.0, SVG Export Plug-In . SVG Version: 6.00 Build 0)  -->
<svg version="1.1" id="Layer_1" xmlns="http://www.w3.org/2000/svg" xmlns:xlink="http://www.w3.org/1999/xlink" x="0px" y="0px"
	 viewBox="0 0 250 250" style="enable-background:new 0 0 250 250;" xml:space="preserve">
<style type="text/css">
	.st0{fill:#34B04A;}
	.st1{fill:#1D9FDA;}
	.st2{fill:#FACE19;}
	.st3{fill:#EE3F36;}
	.st4{fill:#F16623;}
	.st5{fill:#FFFFFF;}
</style>
<g>
	<polygon class="st0" points="218.7,31.3 218.7,0 218.7,0 31.2,0 31.2,0 31.2,31.3 0,31.3 0,125 7.8,125 15.6,125 23.4,125 
		31.2,125 31.2,46.9 46.9,46.9 46.9,31.3 203.1,31.3 203.1,46.9 218.7,46.9 218.7,125 249.9,125 249.9,31.3 	"/>
	<rect x="218.8" y="218.6" class="st0" width="31.2" height="0.1"/>
	<polyline class="st1" points="249.9,125 218.7,125 218.7,203.1 203.1,203.1 203.1,218.7 218.7,218.7 218.8,218.7 218.8,218.6 
		249.9,218.6 	"/>
	<polygon class="st2" points="203.1,218.7 125,218.7 125,250 218.7,250 218.7,218.7 	"/>
	<polygon points="179.6,86 179.6,93.8 179.6,101.6 187.4,101.6 195.2,101.6 195.2,93.8 195.2,86 187.4,86 	"/>
	<polygon points="179.6,70.3 171.8,70.3 164,70.3 164,78.1 164,86 171.8,86 179.6,86 179.6,78.1 	"/>
	<polygon points="164,101.6 164,109.4 164,117.2 171.8,117.2 179.6,117.2 179.6,109.4 179.6,101.6 171.8,101.6 	"/>
	<polygon points="148.4,86 148.4,78.1 148.4,70.3 140.6,70.3 132.8,70.3 132.8,78.1 132.8,86 140.6,86 	"/>
	<polygon points="132.8,101.6 132.8,93.8 132.8,86 125,86 117.1,86 117.1,93.8 117.1,101.6 125,101.6 	"/>
	<polygon class="st3" points="125,218.7 46.9,218.7 31.2,218.7 31.2,249.9 31.2,250 125,250 	"/>
	<polygon points="117.1,117.2 117.1,109.4 117.1,101.6 109.3,101.6 101.5,101.6 101.5,109.4 101.5,117.2 109.3,117.2 	"/>
	<polygon points="85.9,86 85.9,78.1 85.9,70.3 78.1,70.3 70.3,70.3 70.3,78.1 70.3,86 78.1,86 	"/>
	<polygon points="70.3,117.2 78.1,117.2 85.9,117.2 85.9,109.4 85.9,101.6 78.1,101.6 70.3,101.6 70.3,109.4 	"/>
	<polygon points="62.5,171.9 187.4,171.9 187.4,140.6 171.8,140.6 171.8,156.2 78.1,156.2 78.1,140.6 62.5,140.6 	"/>
	<polygon points="70.3,101.6 70.3,93.8 70.3,86 62.5,86 54.7,86 54.7,93.8 54.7,101.6 62.5,101.6 	"/>
	<polygon class="st4" points="46.9,218.7 46.9,203.1 31.2,203.1 31.2,125 23.4,125 15.6,125 7.8,125 0,125 0,218.6 31.2,218.6 
		31.2,218.7 	"/>
	<path class="st5" d="M31.2,203.1h15.6v15.6H125h78.1v-15.6h15.6V125V46.9h-15.6V31.3H46.9v15.6H31.2V125V203.1z M54.7,93.8V86h7.8
		h7.8v-7.8v-7.8h7.8h7.8v7.8V86h-7.8h-7.8v7.8v7.8h7.8h7.8v7.8v7.8h-7.8h-7.8v-7.8v-7.8h-7.8h-7.8V93.8z M195.2,93.8v7.8h-7.8h-7.8
		v7.8v7.8h-7.8H164v-7.8v-7.8h7.8h7.8v-7.8V86h-7.8H164v-7.8v-7.8h7.8h7.8v7.8V86h7.8h7.8V93.8z M62.5,140.6h15.6v15.6h93.7v-15.6
		h15.6v31.2h-125V140.6z M101.5,109.4v-7.8h7.8h7.8v-7.8V86h7.8h7.8v-7.8v-7.8h7.8h7.8v7.8V86h-7.8h-7.8v7.8v7.8H125h-7.8v7.8v7.8
		h-7.8h-7.8V109.4z"/>
</g>
</svg>
