<?xml version="1.0" encoding="utf-8"?>
<!-- Generator: Adobe Illustrator 22.1.0, SVG Export Plug-In . SVG Version: 6.00 Build 0)  -->
<svg version="1.1" id="Capa_1" xmlns="http://www.w3.org/2000/svg" xmlns:xlink="http://www.w3.org/1999/xlink" x="0px" y="0px"
	 viewBox="0 0 274 40.1" style="enable-background:new 0 0 274 40.1;" xml:space="preserve">
<style type="text/css">
	.st0{fill:#33B04A;}
	.st1{fill:#EE3E34;}
	.st2{fill:#F9CD15;}
	.st3{fill:#00A3DF;}
	.st4{fill:#F16522;}
</style>
<g>
	<path class="st0" d="M9.7,34.1H0V0h9.7v14.6h4.9V9.7h4.9V0h9.7v9.7h-4.9v4.9h-4.9v4.9h4.9v4.9h4.9v9.7h-9.7v-9.7h-4.9v-4.9H9.7
		V34.1z"/>
	<path class="st0" d="M36.6,34.1V0h9.7v34.1H36.6z"/>
	<path class="st0" d="M53.7,34.1V0h24.4v4.9h4.9v24.4h-4.9v4.9H53.7z M73.2,4.9h-9.7v24.4h9.7V4.9z"/>
	<path class="st0" d="M95.2,29.2h-4.9V4.9h4.9V0h19.5v4.9h4.9v24.4h-4.9v4.9H95.2V29.2z M109.8,4.9H100v24.4h9.7V4.9z"/>
	<path class="st1" d="M146.4,24.4h9.7v4.9h-4.9v4.9h-19.5v-4.9h-4.9V4.9h4.9V0h19.5v4.9h4.9v4.9h-9.7V4.9h-9.7v24.4h9.7V24.4z"/>
	<path class="st2" d="M168.4,29.2h-4.9V4.9h4.9V0h19.5v4.9h4.9v24.4h-4.9v4.9h-19.5V29.2z M183,4.9h-9.7v24.4h9.7V4.9z"/>
	<path class="st3" d="M200.1,34.1V0h24.4v4.9h4.9v24.4h-4.9v4.9H200.1z M219.6,4.9h-9.7v24.4h9.7V4.9z"/>
	<path class="st4" d="M236.7,34.1V0h24.4v4.9h-14.6v9.7h14.6v4.9h-14.6v9.7h14.6v4.9H236.7z"/>
</g>
<path class="st4" d="M274,4.1c0,1.1-0.4,2.1-1.2,2.9c-0.8,0.8-1.8,1.2-2.9,1.2c-1.1,0-2-0.4-2.8-1.2s-1.2-1.8-1.2-2.9
	c0-1.1,0.4-2,1.2-2.8S268.9,0,270,0c1.1,0,2,0.4,2.8,1.2C273.6,2,274,3,274,4.1z M273.4,4.1c0-1-0.3-1.8-1-2.4c-0.7-0.7-1.5-1-2.4-1
	c-0.9,0-1.8,0.3-2.4,1s-1,1.5-1,2.4c0,0.9,0.3,1.7,1,2.4s1.5,1,2.4,1c0.9,0,1.8-0.3,2.4-1S273.4,5,273.4,4.1z M271.8,6.2h-1
	l-0.8-1.8h-0.6v1.8h-1V1.9h1.6c1.2,0,1.8,0.4,1.8,1.2c0,0.6-0.3,1-0.9,1.2L271.8,6.2z M270.8,3.2c0-0.4-0.3-0.7-0.9-0.7h-0.6v1.2
	h0.6C270.5,3.8,270.8,3.6,270.8,3.2z"/>
</svg>
