<svg width="32" height="32" viewBox="0 0 32 32" fill="none" xmlns="http://www.w3.org/2000/svg">
<g clip-path="url(#clip0)">
<rect x="2.66669" y="2.66666" width="26.6667" height="26.6667" fill="white"/>
<rect x="29.3333" y="2.66666" width="2.66667" height="13.3333" fill="#33AF43"/>
<rect x="29.3333" y="16" width="2.66667" height="13.3333" fill="#F16621"/>
<rect x="2.66669" width="26.6667" height="2.66667" fill="#33AF43"/>
<rect x="2.66669" y="29.3333" width="13.3333" height="2.66667" fill="#F9CC14"/>
<rect x="16" y="29.3333" width="13.3333" height="2.66667" fill="#01A3DE"/>
<rect y="2.66666" width="2.66667" height="13.3333" fill="#33AF43"/>
<rect y="16" width="2.66667" height="13.3333" fill="#EE3E34"/>
<rect x="8" y="13.3333" width="5.33333" height="1.33333" fill="black"/>
<rect x="21.3333" y="8" width="1.33333" height="1.33333" fill="black"/>
<rect x="20" y="9.33334" width="1.33333" height="1.33333" fill="black"/>
<rect x="18.6667" y="10.6667" width="1.33333" height="1.33333" fill="black"/>
<rect x="20" y="12" width="1.33333" height="1.33333" fill="black"/>
<rect x="21.3333" y="13.3333" width="1.33333" height="1.33333" fill="black"/>
<rect x="9.33331" y="22.6667" width="12" height="1.33333" fill="black"/>
<rect x="21.3333" y="21.3333" width="1.33333" height="1.33333" fill="black"/>
<rect x="22.6667" y="18.6667" width="1.33333" height="2.66667" fill="black"/>
</g>
<defs>
<clipPath id="clip0">
<rect width="32" height="32" fill="black"/>
</clipPath>
</defs>
</svg>
